<svg width="138" height="40" viewBox="0 0 138 40" fill="none" xmlns="http://www.w3.org/2000/svg">
<path d="M18.8232 1.5H119.738C129.403 1.5 137.238 9.33502 137.238 19C137.238 28.665 129.403 36.5 119.738 36.5H18.8232C9.15826 36.5 1.32324 28.665 1.32324 19C1.32324 9.33502 9.15826 1.5 18.8232 1.5Z" fill="url(#paint0_linear_620_728)"/>
<path d="M18.8232 1.5H119.738C129.403 1.5 137.238 9.33502 137.238 19C137.238 28.665 129.403 36.5 119.738 36.5H18.8232C9.15826 36.5 1.32324 28.665 1.32324 19C1.32324 9.33502 9.15826 1.5 18.8232 1.5Z" fill="url(#paint1_linear_620_728)"/>
<path d="M18.8232 1.5H119.738C129.403 1.5 137.238 9.33502 137.238 19C137.238 28.665 129.403 36.5 119.738 36.5H18.8232C9.15826 36.5 1.32324 28.665 1.32324 19C1.32324 9.33502 9.15826 1.5 18.8232 1.5Z" stroke="#141C2E"/>
<path d="M21.1378 25.0721V13.4751H23.4608L25.5177 19.1495C25.6478 19.516 25.7719 19.8943 25.8901 20.2844C26.0202 20.6627 26.1443 21.041 26.2625 21.4192H26.3334C26.4635 21.041 26.5876 20.6627 26.7058 20.2844C26.824 19.8943 26.9422 19.516 27.0605 19.1495L29.0642 13.4751H31.4049V25.0721H29.5075V19.7701C29.5075 19.4037 29.5194 19.0076 29.543 18.5821C29.5785 18.1446 29.6139 17.7072 29.6494 17.2698C29.6967 16.8324 29.7381 16.4364 29.7735 16.0818H29.7026L28.7628 18.7771L26.8654 23.9905H25.6419L23.7268 18.7771L22.8047 16.0818H22.7337C22.7692 16.4364 22.8047 16.8324 22.8401 17.2698C22.8874 17.7072 22.9229 18.1446 22.9465 18.5821C22.982 19.0076 22.9997 19.4037 22.9997 19.7701V25.0721H21.1378ZM37.7375 25.2849C37.0164 25.2849 36.3425 25.1076 35.716 24.753C35.0895 24.3865 34.5811 23.8663 34.191 23.1925C33.8009 22.5068 33.6058 21.6852 33.6058 20.7277C33.6058 19.7583 33.8009 18.9367 34.191 18.2629C34.5811 17.5772 35.0895 17.0571 35.716 16.7024C36.3425 16.3359 37.0164 16.1527 37.7375 16.1527C38.4704 16.1527 39.1502 16.3359 39.7767 16.7024C40.4033 17.0571 40.9116 17.5772 41.3017 18.2629C41.6918 18.9367 41.8869 19.7583 41.8869 20.7277C41.8869 21.6852 41.6918 22.5068 41.3017 23.1925C40.9116 23.8663 40.4033 24.3865 39.7767 24.753C39.1502 25.1076 38.4704 25.2849 37.7375 25.2849ZM37.7375 23.6181C38.3759 23.6181 38.8783 23.3521 39.2448 22.8201C39.6112 22.2881 39.7945 21.5907 39.7945 20.7277C39.7945 19.8529 39.6112 19.1495 39.2448 18.6175C38.8783 18.0855 38.3759 17.8196 37.7375 17.8196C37.0991 17.8196 36.5967 18.0855 36.2302 18.6175C35.8756 19.1495 35.6983 19.8529 35.6983 20.7277C35.6983 21.5907 35.8756 22.2881 36.2302 22.8201C36.5967 23.3521 37.0991 23.6181 37.7375 23.6181ZM46.9554 25.2849C45.8678 25.2849 44.9989 24.883 44.3487 24.0791C43.6985 23.2753 43.3734 22.1581 43.3734 20.7277C43.3734 19.7819 43.5448 18.9663 43.8876 18.2806C44.2423 17.5949 44.7033 17.0689 45.2708 16.7024C45.8382 16.3359 46.4352 16.1527 47.0617 16.1527C47.5583 16.1527 47.9779 16.2414 48.3208 16.4187C48.6754 16.5842 49.0182 16.8147 49.3492 17.1103L49.2783 15.7094V12.553H51.3175V25.0721H49.633L49.4911 24.1323H49.4202C49.101 24.4515 48.7286 24.7234 48.303 24.948C47.8774 25.1726 47.4282 25.2849 46.9554 25.2849ZM47.4519 23.6003C48.1021 23.6003 48.7109 23.2753 49.2783 22.6251V18.5643C48.9828 18.2924 48.6872 18.1033 48.3917 17.9969C48.0961 17.8905 47.8006 17.8373 47.5051 17.8373C46.9494 17.8373 46.4707 18.0915 46.0687 18.5998C45.6786 19.0963 45.4836 19.7997 45.4836 20.71C45.4836 21.6439 45.655 22.3591 45.9978 22.8556C46.3406 23.3521 46.8253 23.6003 47.4519 23.6003ZM57.6383 25.2849C56.8345 25.2849 56.1074 25.1076 55.4573 24.753C54.8071 24.3865 54.2928 23.8663 53.9145 23.1925C53.5362 22.5068 53.3471 21.6852 53.3471 20.7277C53.3471 19.7819 53.5362 18.9663 53.9145 18.2806C54.3046 17.5949 54.8071 17.0689 55.4218 16.7024C56.0365 16.3359 56.6808 16.1527 57.3546 16.1527C58.1467 16.1527 58.8087 16.33 59.3407 16.6847C59.8726 17.0275 60.2746 17.5122 60.5465 18.1387C60.8184 18.7535 60.9543 19.4687 60.9543 20.2844C60.9543 20.71 60.9248 21.041 60.8657 21.2774H55.3331C55.4277 22.0458 55.7055 22.6428 56.1666 23.0684C56.6276 23.494 57.2069 23.7067 57.9043 23.7067C58.2826 23.7067 58.6314 23.6535 58.9506 23.5471C59.2816 23.4289 59.6067 23.2693 59.9258 23.0684L60.6174 24.3451C60.2036 24.617 59.7426 24.8416 59.2343 25.0189C58.7259 25.1963 58.194 25.2849 57.6383 25.2849ZM55.3154 19.8943H59.1811C59.1811 19.2204 59.0333 18.6944 58.7378 18.3161C58.4422 17.9259 57.9989 17.7309 57.4078 17.7309C56.8995 17.7309 56.4444 17.92 56.0424 18.2983C55.6523 18.6648 55.41 19.1968 55.3154 19.8943ZM64.888 25.2849C64.1669 25.2849 63.6527 25.0662 63.3453 24.6288C63.0498 24.1914 62.902 23.5944 62.902 22.8378V12.553H64.9412V22.9442C64.9412 23.1925 64.9885 23.3698 65.0831 23.4762C65.1777 23.5708 65.2781 23.6181 65.3845 23.6181C65.4318 23.6181 65.4732 23.6181 65.5087 23.6181C65.556 23.6063 65.621 23.5944 65.7037 23.5826L65.9697 25.1076C65.8515 25.1549 65.6978 25.1963 65.5087 25.2317C65.3313 25.2672 65.1245 25.2849 64.888 25.2849ZM74.7771 25.2849C72.6669 25.2849 70.7873 23.6358 70.7873 20.7809C70.7873 17.8905 72.6669 16.2414 74.7771 16.2414C76.8872 16.2414 78.7669 17.8905 78.7669 20.7809C78.7669 23.6358 76.8872 25.2849 74.7771 25.2849ZM74.7771 24.0791C76.2666 24.0791 77.2596 22.7492 77.2596 20.7809C77.2596 18.7948 76.2666 17.4472 74.7771 17.4472C73.3053 17.4472 72.2945 18.7948 72.2945 20.7809C72.2945 22.7492 73.3053 24.0791 74.7771 24.0791ZM81.0365 25.0721V16.4542H82.2423L82.3664 17.6954H82.4196C83.2353 16.8797 84.122 16.2414 85.31 16.2414C87.1188 16.2414 87.9345 17.4117 87.9345 19.6105V25.0721H86.4804V19.8056C86.4804 18.1919 85.9839 17.5004 84.849 17.5004C83.9624 17.5004 83.3595 17.9614 82.4906 18.8303V25.0721H81.0365Z" fill="#E6EAF2"/>
<g filter="url(#filter0_d_620_728)">
<path d="M106.489 26.5266C111.662 26.5266 115.856 22.313 115.856 17.1153C115.856 11.9176 111.662 7.70407 106.489 7.70407C101.316 7.70407 97.1221 11.9176 97.1221 17.1153C97.1221 22.313 101.316 26.5266 106.489 26.5266Z" fill="#FFD21E"/>
<path d="M115.857 17.1154C115.857 11.9177 111.663 7.7041 106.49 7.7041C101.316 7.7041 97.1227 11.9177 97.1227 17.1154C97.1227 22.3131 101.316 26.5266 106.49 26.5266C111.663 26.5266 115.857 22.3131 115.857 17.1154ZM96.0444 17.1154C96.0444 11.3194 100.721 6.62079 106.49 6.62079C112.258 6.62079 116.935 11.3194 116.935 17.1154C116.935 22.9114 112.258 27.6099 106.49 27.6099C100.721 27.6099 96.0444 22.9114 96.0444 17.1154Z" fill="#FF9D00"/>
<path d="M109.533 14.5537C109.876 14.6755 110.013 15.3851 110.36 15.1997C111.017 14.8486 111.267 14.0287 110.917 13.3684C110.568 12.708 109.752 12.4574 109.094 12.8085C108.437 13.1596 108.188 13.9795 108.537 14.6398C108.702 14.9515 109.225 14.4447 109.533 14.5537Z" fill="#32343D"/>
<path d="M103.182 14.5537C102.838 14.6755 102.702 15.3851 102.355 15.1997C101.697 14.8486 101.448 14.0287 101.797 13.3684C102.147 12.708 102.963 12.4574 103.62 12.8085C104.277 13.1596 104.527 13.9795 104.177 14.6398C104.012 14.9515 103.489 14.4447 103.182 14.5537Z" fill="#32343D"/>
<path d="M106.422 21.0529C109.071 21.0529 109.926 18.6796 109.926 17.4609C109.926 16.8276 109.502 17.0269 108.823 17.3645C108.196 17.6765 107.351 18.1066 106.422 18.1066C104.486 18.1066 102.917 16.2422 102.917 17.4609C102.917 18.6796 103.772 21.0529 106.422 21.0529Z" fill="#32343D"/>
<mask id="mask0_620_728" style="mask-type:alpha" maskUnits="userSpaceOnUse" x="102" y="17" width="8" height="5">
<path d="M106.422 21.0529C109.071 21.0529 109.926 18.6796 109.926 17.4609C109.926 16.8276 109.502 17.0269 108.823 17.3645C108.196 17.6765 107.351 18.1066 106.422 18.1066C104.486 18.1066 102.917 16.2422 102.917 17.4609C102.917 18.6796 103.772 21.0529 106.422 21.0529Z" fill="white"/>
</mask>
<g mask="url(#mask0_620_728)">
<path d="M106.489 23.8182C107.78 23.8182 108.827 22.7666 108.827 21.4694C108.827 20.459 108.192 19.5976 107.301 19.266C107.268 19.2538 107.235 19.2423 107.202 19.2316C106.977 19.1594 106.738 19.9352 106.489 19.9352C106.257 19.9352 106.033 19.1545 105.821 19.2178C104.855 19.5066 104.151 20.4054 104.151 21.4694C104.151 22.7666 105.198 23.8182 106.489 23.8182Z" fill="#FF323D"/>
</g>
<g style="mix-blend-mode:multiply">
<path d="M112.823 15.8289C113.307 15.8289 113.699 15.4348 113.699 14.9487C113.699 14.4626 113.307 14.0685 112.823 14.0685C112.339 14.0685 111.947 14.4626 111.947 14.9487C111.947 15.4348 112.339 15.8289 112.823 15.8289Z" fill="#FFD21E"/>
</g>
<g style="mix-blend-mode:multiply">
<path d="M100.289 15.8289C100.773 15.8289 101.165 15.4348 101.165 14.9487C101.165 14.4626 100.773 14.0685 100.289 14.0685C99.8053 14.0685 99.4131 14.4626 99.4131 14.9487C99.4131 15.4348 99.8053 15.8289 100.289 15.8289Z" fill="#FFD21E"/>
</g>
<path d="M98.4863 18.808C98.0499 18.808 97.6598 18.9881 97.3878 19.3148C97.2196 19.5171 97.0439 19.8431 97.0296 20.3314C96.8466 20.2786 96.6705 20.2491 96.5061 20.2491C96.0883 20.2491 95.7109 20.41 95.4441 20.7022C95.1012 21.0773 94.9489 21.5383 95.0152 21.9995C95.0467 22.2191 95.1198 22.416 95.229 22.5983C94.9988 22.7854 94.8292 23.046 94.7473 23.3593C94.6831 23.6049 94.6173 24.1165 94.9608 24.6436C94.9389 24.678 94.9184 24.7137 94.8993 24.7503C94.6928 25.1441 94.6796 25.589 94.8618 26.0034C95.1381 26.6314 95.8247 27.1262 97.1579 27.6573C97.9873 27.9877 98.7461 28.199 98.7529 28.2009C99.8494 28.4866 100.841 28.6318 101.7 28.6318C103.278 28.6318 104.407 28.1462 105.057 27.1885C106.104 25.6464 105.954 24.236 104.6 22.8764C103.851 22.1241 103.353 21.0147 103.249 20.7713C103.04 20.0503 102.487 19.249 101.567 19.249H101.567C101.49 19.249 101.411 19.2552 101.334 19.2674C100.932 19.331 100.58 19.5639 100.328 19.9144C100.057 19.5753 99.7931 19.3056 99.5545 19.1533C99.1949 18.9242 98.8356 18.808 98.4863 18.808ZM98.4863 19.8914C98.6237 19.8914 98.7917 19.9501 98.9769 20.0682C99.5518 20.4346 100.661 22.3507 101.068 23.0961C101.204 23.3458 101.436 23.4514 101.646 23.4514C102.061 23.4514 102.386 23.0362 101.684 22.5086C100.628 21.7148 100.998 20.4173 101.502 20.3374C101.524 20.3339 101.546 20.3323 101.567 20.3323C102.026 20.3323 102.228 21.1258 102.228 21.1258C102.228 21.1258 102.82 22.6208 103.838 23.6426C104.856 24.6647 104.908 25.485 104.167 26.5781C103.661 27.3234 102.692 27.5485 101.7 27.5485C100.67 27.5485 99.6149 27.3063 99.0235 27.1522C98.9944 27.1447 95.3977 26.1239 95.8533 25.2551C95.9298 25.1091 96.056 25.0506 96.2147 25.0506C96.8563 25.0506 98.0232 26.0099 98.5248 26.0099C98.6369 26.0099 98.7159 25.962 98.7483 25.845C98.962 25.0745 95.4982 24.7505 95.7902 23.6345C95.8417 23.437 95.9813 23.3569 96.1775 23.3571C97.0253 23.3571 98.9273 24.8551 99.3259 24.8551C99.3564 24.8551 99.3782 24.8461 99.3901 24.8272C99.5898 24.5033 99.4804 24.2771 98.0725 23.4211C96.6646 22.5647 95.6764 22.0496 96.2384 21.4348C96.3031 21.3638 96.3948 21.3324 96.5061 21.3324C97.3609 21.3327 99.3804 23.1792 99.3804 23.1792C99.3804 23.1792 99.9254 23.7488 100.255 23.7488C100.331 23.7488 100.395 23.7187 100.439 23.6445C100.673 23.2485 98.2682 21.4177 98.1326 20.6624C98.0407 20.1505 98.197 19.8914 98.4863 19.8914Z" fill="#FF9D00"/>
<path d="M104.165 26.5781C104.907 25.485 104.855 24.6647 103.837 23.6426C102.819 22.6207 102.226 21.1258 102.226 21.1258C102.226 21.1258 102.005 20.2575 101.501 20.3374C100.997 20.4173 100.627 21.7148 101.683 22.5086C102.739 23.3021 101.472 23.8414 101.066 23.096C100.66 22.3507 99.5508 20.4346 98.9756 20.0682C98.4007 19.7018 97.9958 19.907 98.1314 20.6624C98.267 21.4177 100.672 23.2485 100.438 23.6447C100.204 24.0407 99.3791 23.1792 99.3791 23.1792C99.3791 23.1792 96.799 20.82 96.2372 21.4348C95.6755 22.0496 96.6634 22.5647 98.0713 23.421C99.4794 24.2771 99.5886 24.5033 99.3888 24.8272C99.1888 25.1511 96.0809 22.5184 95.7889 23.6344C95.4973 24.7505 98.9608 25.0744 98.747 25.8449C98.5333 26.6157 96.3073 24.3865 95.852 25.2551C95.3965 26.1239 98.9931 27.1446 99.0222 27.1522C100.184 27.455 103.135 28.0966 104.165 26.5781Z" fill="#FFD21E"/>
<path d="M114.627 18.808C115.063 18.808 115.453 18.9881 115.725 19.3148C115.894 19.5171 116.069 19.8431 116.084 20.3314C116.267 20.2786 116.443 20.2491 116.607 20.2491C117.025 20.2491 117.402 20.41 117.669 20.7022C118.012 21.0773 118.164 21.5383 118.098 21.9995C118.067 22.2191 117.993 22.416 117.884 22.5983C118.115 22.7854 118.284 23.046 118.366 23.3593C118.43 23.6049 118.496 24.1165 118.153 24.6436C118.174 24.678 118.195 24.7137 118.214 24.7503C118.42 25.1441 118.434 25.589 118.251 26.0034C117.975 26.6314 117.289 27.1262 115.955 27.6573C115.126 27.9877 114.367 28.199 114.36 28.2009C113.264 28.4866 112.272 28.6318 111.414 28.6318C109.836 28.6318 108.706 28.1462 108.056 27.1885C107.009 25.6464 107.159 24.236 108.513 22.8764C109.262 22.1241 109.76 21.0147 109.864 20.7713C110.073 20.0503 110.627 19.249 111.546 19.249H111.546C111.624 19.249 111.702 19.2552 111.779 19.2674C112.182 19.331 112.534 19.5639 112.785 19.9144C113.057 19.5753 113.32 19.3056 113.559 19.1533C113.918 18.9242 114.278 18.808 114.627 18.808ZM114.627 19.8914C114.49 19.8914 114.322 19.9501 114.136 20.0682C113.561 20.4346 112.452 22.3507 112.046 23.0961C111.91 23.3458 111.677 23.4514 111.468 23.4514C111.052 23.4514 110.727 23.0362 111.43 22.5086C112.485 21.7148 112.115 20.4173 111.611 20.3374C111.589 20.3339 111.567 20.3323 111.546 20.3323C111.088 20.3323 110.886 21.1258 110.886 21.1258C110.886 21.1258 110.293 22.6208 109.275 23.6426C108.257 24.6647 108.205 25.485 108.947 26.5781C109.453 27.3234 110.421 27.5485 111.414 27.5485C112.443 27.5485 113.498 27.3063 114.09 27.1522C114.119 27.1447 117.716 26.1239 117.26 25.2551C117.183 25.1091 117.057 25.0506 116.899 25.0506C116.257 25.0506 115.09 26.0099 114.588 26.0099C114.476 26.0099 114.397 25.962 114.365 25.845C114.151 25.0745 117.615 24.7505 117.323 23.6345C117.272 23.437 117.132 23.3569 116.936 23.3571C116.088 23.3571 114.186 24.8551 113.787 24.8551C113.757 24.8551 113.735 24.8461 113.723 24.8272C113.523 24.5033 113.633 24.2771 115.041 23.4211C116.449 22.5647 117.437 22.0496 116.875 21.4348C116.81 21.3638 116.718 21.3324 116.607 21.3324C115.752 21.3327 113.733 23.1792 113.733 23.1792C113.733 23.1792 113.188 23.7488 112.858 23.7488C112.782 23.7488 112.718 23.7187 112.674 23.6445C112.441 23.2485 114.845 21.4177 114.981 20.6624C115.073 20.1505 114.916 19.8914 114.627 19.8914Z" fill="#FF9D00"/>
<path d="M108.946 26.5781C108.204 25.485 108.257 24.6647 109.275 23.6426C110.292 22.6207 110.885 21.1258 110.885 21.1258C110.885 21.1258 111.106 20.2575 111.61 20.3374C112.114 20.4173 112.484 21.7148 111.429 22.5086C110.373 23.3021 111.639 23.8414 112.045 23.096C112.451 22.3507 113.56 20.4346 114.136 20.0682C114.711 19.7018 115.116 19.907 114.98 20.6624C114.844 21.4177 112.44 23.2485 112.674 23.6447C112.908 24.0407 113.732 23.1792 113.732 23.1792C113.732 23.1792 116.312 20.82 116.874 21.4348C117.436 22.0496 116.448 22.5647 115.04 23.421C113.632 24.2771 113.523 24.5033 113.722 24.8272C113.922 25.1511 117.03 22.5184 117.322 23.6344C117.614 24.7505 114.151 25.0744 114.364 25.8449C114.578 26.6157 116.804 24.3865 117.259 25.2551C117.715 26.1239 114.118 27.1446 114.089 27.1522C112.927 27.455 109.977 28.0966 108.946 26.5781Z" fill="#FFD21E"/>
</g>
<defs>
<filter id="filter0_d_620_728" x="86.1461" y="0.0440892" width="40.8211" height="39.1104" filterUnits="userSpaceOnUse" color-interpolation-filters="sRGB">
<feFlood flood-opacity="0" result="BackgroundImageFix"/>
<feColorMatrix in="SourceAlpha" type="matrix" values="0 0 0 0 0 0 0 0 0 0 0 0 0 0 0 0 0 0 127 0" result="hardAlpha"/>
<feOffset dy="1.97301"/>
<feGaussianBlur stdDeviation="4.27485"/>
<feColorMatrix type="matrix" values="0 0 0 0 0 0 0 0 0 0 0 0 0 0 0 0 0 0 0.1 0"/>
<feBlend mode="normal" in2="BackgroundImageFix" result="effect1_dropShadow_620_728"/>
<feBlend mode="normal" in="SourceGraphic" in2="effect1_dropShadow_620_728" result="shape"/>
</filter>
<linearGradient id="paint0_linear_620_728" x1="0.823242" y1="19" x2="79.0608" y2="19" gradientUnits="userSpaceOnUse">
<stop stop-color="#F5F9FA"/>
<stop offset="1" stop-color="white"/>
</linearGradient>
<linearGradient id="paint1_linear_620_728" x1="0.823242" y1="19" x2="56.8414" y2="19" gradientUnits="userSpaceOnUse">
<stop stop-color="#172033"/>
<stop offset="1" stop-color="#0B0F19"/>
</linearGradient>
</defs>
</svg>
